<svg version="1.0" xmlns="http://www.w3.org/2000/svg"
 width="25px" height="20px" viewBox="0 0 512.000000 512.000000"
 preserveAspectRatio="xMidYMid meet">

<g transform="translate(0.000000,512.000000) scale(0.100000,-0.100000)"
fill="#FF0000" stroke="none">
<path d="M2310 4524 c-145 -39 -246 -156 -271 -315 -17 -111 -7 -489 16 -559
28 -91 76 -170 143 -236 l63 -62 -3 -98 -3 -98 -274 -78 c-289 -82 -339 -104
-401 -175 l-31 -35 -87 24 -87 25 -3 95 -3 95 74 74 c45 45 84 96 101 130 54
112 56 130 56 577 l0 412 -526 0 -525 0 3 -427 3 -428 27 -69 c33 -86 87 -165
150 -220 l49 -43 -3 -98 -3 -99 -95 -27 c-52 -15 -114 -32 -136 -38 l-42 -11
20 -68 c11 -37 22 -69 24 -71 2 -2 67 13 143 34 l140 38 32 -27 c60 -51 109
-69 196 -74 97 -5 151 10 224 64 53 39 49 38 154 8 l50 -14 -3 -520 -3 -520
76 0 75 0 0 185 0 185 135 0 135 0 0 -185 0 -185 75 0 75 0 0 395 0 395 -75 0
-75 0 0 -135 0 -136 -132 3 -133 3 0 245 c0 244 0 246 26 295 41 81 73 97 369
180 145 41 268 75 273 75 5 0 27 -14 48 -31 58 -46 128 -69 208 -69 82 0 136
18 204 66 l50 36 97 -26 c54 -14 104 -28 112 -31 10 -4 19 13 32 65 10 39 17
72 15 74 -2 2 -49 17 -104 33 l-100 29 -3 98 -3 99 64 62 c34 35 77 89 94 121
56 105 65 152 70 354 l5 185 59 215 c33 118 62 223 65 233 5 16 -19 17 -423
16 -343 0 -439 -3 -483 -15z m706 -156 c-3 -13 -18 -69 -33 -125 l-28 -103
-388 0 -389 0 7 43 c10 62 42 124 81 153 66 51 85 53 433 54 l323 0 -6 -22z
m-1566 -343 l0 -125 -295 0 -294 0 -76 -100 c-42 -55 -78 -100 -80 -100 -3 0
-5 101 -5 225 l0 225 375 0 375 0 0 -125z m1488 -125 c3 -101 -12 -208 -38
-267 -27 -61 -105 -140 -175 -177 -56 -29 -67 -31 -165 -31 -99 0 -109 2 -166
32 -79 41 -156 125 -184 200 -16 42 -23 90 -27 179 -3 67 -3 129 0 138 6 15
44 16 379 14 l373 -3 3 -85z m-1490 -298 c-3 -143 -4 -150 -35 -213 -39 -79
-102 -140 -181 -177 -50 -24 -70 -27 -157 -27 -89 0 -106 3 -157 28 -77 38
-143 104 -178 178 l-29 61 112 149 112 149 258 0 259 0 -4 -148z m1262 -398
c0 -77 -7 -92 -60 -123 -67 -40 -182 -21 -227 37 -8 9 -13 45 -13 86 l0 71
150 0 150 0 0 -71z m-1490 -246 c0 -73 -1 -77 -31 -102 -38 -33 -66 -40 -134
-34 -38 3 -64 12 -89 32 -36 27 -36 27 -36 104 l0 77 145 0 145 0 0 -77z"/>
<path d="M3912 4280 c-185 -49 -329 -193 -377 -375 -20 -80 -21 -407 0 -484
25 -95 65 -162 142 -240 l74 -74 -3 -95 -3 -95 -87 -25 -87 -24 -31 35 c-17
19 -52 49 -78 65 -47 31 -213 87 -234 80 -6 -2 -20 -33 -30 -68 -21 -75 -23
-72 75 -96 91 -22 154 -66 187 -129 25 -49 25 -52 25 -295 l0 -245 -132 -3
-133 -3 0 136 0 135 -75 0 -75 0 0 -395 0 -395 75 0 75 0 0 185 0 185 135 0
135 0 0 -185 0 -185 75 0 76 0 -3 520 -3 520 50 14 c105 30 101 31 154 -8 65
-48 120 -66 200 -66 97 0 150 20 246 94 14 10 506 -124 565 -154 78 -40 119
-118 120 -227 l0 -73 76 0 77 0 -5 98 c-4 77 -10 110 -30 154 -31 67 -95 140
-154 174 -23 13 -165 59 -315 102 l-274 78 -3 99 -3 98 49 43 c64 56 117 135
149 220 24 62 27 87 31 240 3 108 0 198 -8 242 -35 207 -203 384 -407 427 -90
19 -153 18 -241 -5z m258 -155 c146 -50 257 -219 248 -377 l-3 -53 -78 102
-77 103 -285 2 -285 3 20 41 c43 86 144 165 244 190 60 16 153 11 216 -11z
m127 -524 l112 -149 -29 -61 c-35 -74 -101 -140 -178 -178 -51 -25 -68 -28
-157 -28 -87 0 -107 3 -157 27 -79 37 -142 98 -181 177 -31 63 -32 70 -35 213
l-4 148 259 0 258 0 112 -149z m-107 -643 c0 -77 0 -77 -36 -104 -25 -20 -51
-29 -89 -32 -68 -6 -96 1 -134 34 -30 25 -31 29 -31 102 l0 77 145 0 145 0 0
-77z"/>
<path d="M283 2776 c-39 -13 -87 -33 -106 -45 -52 -32 -116 -106 -145 -169
l-27 -57 -3 -407 -3 -408 75 0 76 0 0 383 c0 363 1 384 21 427 35 78 85 116
183 141 35 9 45 15 42 28 -3 9 -12 42 -21 74 -9 31 -17 57 -18 57 -1 -1 -34
-11 -74 -24z"/>
<path d="M2480 2585 l0 -75 80 0 80 0 0 75 0 75 -80 0 -80 0 0 -75z"/>
<path d="M2487 2304 c-4 -4 -7 -38 -7 -76 l0 -68 80 0 81 0 -3 73 -3 72 -70 3
c-39 1 -74 0 -78 -4z"/>
<path d="M420 1965 l0 -275 75 0 75 0 0 275 0 275 -75 0 -75 0 0 -275z"/>
<path d="M4550 1965 l0 -275 75 0 75 0 0 275 0 275 -75 0 -75 0 0 -275z"/>
<path d="M4970 1925 l0 -235 75 0 75 0 0 235 0 235 -75 0 -75 0 0 -235z"/>
<path d="M2487 1954 c-4 -4 -7 -38 -7 -76 l0 -68 80 0 81 0 -3 73 -3 72 -70 3
c-39 1 -74 0 -78 -4z"/>
<path d="M130 1280 l0 -250 -65 0 -65 0 0 -225 0 -225 295 0 295 0 0 75 0 75
-220 0 -220 0 0 75 0 75 1560 0 1560 0 0 75 0 75 -315 0 -315 0 0 85 c0 71 4
94 25 135 14 27 40 60 58 74 75 58 54 56 717 56 l610 0 0 75 0 75 -618 0
c-589 0 -622 -1 -676 -20 -63 -21 -103 -46 -158 -98 l-37 -35 -53 48 c-29 26
-78 60 -108 74 l-55 26 -1107 3 -1108 2 0 -250z m2236 65 c33 -21 60 -48 81
-85 31 -50 33 -61 33 -142 l0 -88 -1100 0 -1100 0 0 175 0 175 1018 -2 1019
-3 49 -30z"/>
<path d="M4200 1455 l0 -75 320 0 320 0 0 -175 0 -175 -710 0 -710 0 0 -75 0
-75 775 0 775 0 0 -75 0 -75 -2115 0 -2115 0 0 -75 0 -75 2190 0 2190 0 0 225
0 225 -65 0 -65 0 0 250 0 250 -395 0 -395 0 0 -75z"/>
</g>
</svg>
